<?xml version="1.0" encoding="UTF-8"?>
<svg xmlns="http://www.w3.org/2000/svg" version="1.1" viewBox="0 0 300 200">
  <defs>
    <style>
      .cls-1 {
        fill: #818591;
      }

      .cls-1, .cls-2 {
        fill-rule: evenodd;
      }

      .cls-3 {
        fill: #7b7b7b;
      }

      .cls-4 {
        fill: #244057;
      }

      .cls-5 {
        isolation: isolate;
      }

      .cls-2 {
        fill: #163b68;
      }
    </style>
  </defs>
  <!-- Generator: Adobe Illustrator 28.6.0, SVG Export Plug-In . SVG Version: 1.2.0 Build 709)  -->
  <g>
    <g id="Camada_1">
      <g id="Camada_1-2" data-name="Camada_1">
        <g>
          <path class="cls-2" d="M107.9,9.2C48.3,9.4,0,49.8,0,99.6s48.3,90.3,107.9,90.4v-20.3c-46.3-.1-83.8-31.5-83.8-70.1S61.6,29.7,107.9,29.5V9.2Z"/>
          <path class="cls-1" d="M107.9,39.7c-39.6,0-71.7,26.9-71.7,60s32.1,59.8,71.7,60v-20.3c-26.3-.1-47.6-17.8-47.6-39.7s21.3-39.5,47.6-39.7c0,0,0-20.3,0-20.3Z"/>
          <g class="cls-5">
            <g class="cls-5">
              <path class="cls-3" d="M159,38v4h-2.9c-2.4,0-4.5.5-6.4,1.5-1.9,1-3.4,2.4-4.5,4.2s-1.6,3.8-1.6,6,.2,3,.7,4.4,1.1,2.4,1.8,3.3c.7.9,1.6,1.7,2.6,2.3,1,.6,1.9,1.1,2.9,1.4,1,.3,2,.4,2.9.4h4.5v3.9h-4.5c-2.1,0-4.2-.4-6.1-1.2-1.9-.8-3.5-1.9-4.9-3.3s-2.4-3-3.2-5c-.8-2-1.2-4-1.2-6.2s.4-3.8,1.2-5.7c.8-1.9,1.8-3.5,3.2-5,1.4-1.5,3.1-2.7,5.2-3.6s4.4-1.4,6.8-1.4h3.3Z"/>
              <path class="cls-3" d="M164.7,44.7c-.4-.5-.6-1-.6-1.7s.2-1.2.6-1.7c.4-.5,1-.7,1.7-.7s1.3.2,1.7.7c.4.5.6,1,.6,1.7s-.2,1.2-.6,1.7c-.4.5-1,.7-1.7.7s-1.3-.2-1.7-.7ZM168.4,69.4h-3.9v-21.6h3.9v21.6Z"/>
              <path class="cls-3" d="M174.6,69.4v-21.6h3.8v2.5h0c.7-1,1.5-1.8,2.4-2.2.9-.5,2.1-.7,3.4-.7h.9v3.8h-.6c-4,0-6.1,2.7-6.1,8.2v10.1h-3.9Z"/>
              <path class="cls-3" d="M201.6,47.8h3.9v12.6c0,2.8-.9,5.1-2.6,6.8-1.7,1.7-3.9,2.6-6.6,2.6s-4.9-.9-6.6-2.6c-1.7-1.7-2.6-4-2.6-6.8v-12.6h3.9v12.6c0,1.6.5,3,1.5,4.1,1,1.1,2.3,1.6,3.7,1.6s2.7-.5,3.7-1.6c1-1.1,1.5-2.4,1.5-4.1v-12.6ZM193.4,45.2l4-6.4h4.8l-5.8,6.4h-3Z"/>
              <path class="cls-3" d="M209.5,69.4v-21.6h3.8v2.5h0c.7-1,1.5-1.8,2.4-2.2.9-.5,2.1-.7,3.4-.7h.9v3.8h-.6c-4,0-6.1,2.7-6.1,8.2v10.1h-3.9Z"/>
              <path class="cls-3" d="M237.7,64.3v4.1c-.8.4-1.6.7-2.6,1-1,.3-1.8.4-2.5.4-3.2,0-5.8-1-7.9-3.1-2.1-2.1-3.2-4.7-3.2-7.8s1-6,3.1-8.2,4.7-3.3,8-3.3,3.1.3,4.4.9c1.4.6,2.5,1.4,3.4,2.4.9,1,1.6,2.1,2.1,3.4.5,1.3.7,2.6.7,4v9.6c0,2-.3,3.7-.9,5.3s-1.4,2.8-2.4,3.7c-1,1-2.2,1.7-3.6,2.2-1.4.5-2.8.7-4.4.7s-4.6-.4-7.1-1.2l.9-3.6c2.6.7,4.6,1.1,6,1.1s1.8-.1,2.7-.3,1.6-.6,2.4-1.1c.7-.5,1.3-1.2,1.8-2.1s.7-2,.7-3.3v-10.1c0-2.4-.7-4.2-2-5.7s-2.9-2.1-4.9-2.1-2.8.4-3.9,1.1c-1.1.7-1.9,1.7-2.4,2.9-.5,1.2-.7,2.5-.7,3.9,0,2.1.7,3.8,2,5,1.4,1.3,3.1,1.9,5.2,1.9s3.1-.6,5-1.7Z"/>
              <path class="cls-3" d="M249.5,44.7c-.4-.5-.6-1-.6-1.7s.2-1.2.6-1.7c.4-.5,1-.7,1.7-.7s1.3.2,1.7.7c.4.5.6,1,.6,1.7s-.2,1.2-.6,1.7c-.4.5-1,.7-1.7.7s-1.3-.2-1.7-.7ZM253.2,69.4h-3.9v-21.6h3.9v21.6Z"/>
              <path class="cls-3" d="M274,47.8v3.8h-3.1c-1,0-1.9.2-2.7.5-.9.3-1.7.7-2.4,1.3-.7.6-1.3,1.3-1.7,2.2-.4.9-.6,1.9-.6,3s.4,2.7,1.1,3.8,1.6,1.9,2.7,2.4,2.3.8,3.6.8h3.1v3.8h-3.8c-1,0-2-.1-3-.4s-2-.8-2.9-1.4c-.9-.6-1.8-1.3-2.5-2.2-.7-.8-1.3-1.8-1.7-3-.4-1.2-.6-2.4-.6-3.8s.2-2.6.6-3.8c.4-1.2,1-2.2,1.7-3,.7-.8,1.5-1.6,2.5-2.2.9-.6,1.9-1.1,2.9-1.4s2-.4,3-.4h3.8Z"/>
              <path class="cls-3" d="M298.1,69.4h-3.9v-12.1c0-1.9-.7-3.4-2.1-4.5s-3-1.6-5-1.6-3.8.7-5.1,2.2c-1.3,1.5-2,3.2-2,5.3s.7,3.8,2,5.2c1.3,1.4,3,2.1,5.1,2.1s3.9-1,5.4-3v4.7c-.9.7-1.8,1.2-2.7,1.5-.8.3-1.9.5-3.2.5-2,0-3.9-.5-5.5-1.5-1.6-1-2.9-2.4-3.8-4.1-.9-1.7-1.3-3.7-1.3-5.8,0-3.2,1-5.8,3-7.9,2-2.1,4.7-3.1,8.1-3.1s6,.9,7.9,2.8c2,1.9,2.9,4.3,2.9,7.5v11.8Z"/>
            </g>
          </g>
          <g class="cls-5">
            <g class="cls-5">
              <path class="cls-4" d="M113.6,82.2v5.3h-3.8c-3.2,0-6,.7-8.6,2-2.5,1.4-4.5,3.2-6,5.6-1.4,2.4-2.1,5.1-2.1,8s.3,4,.9,5.8,1.4,3.3,2.4,4.4c1,1.2,2.1,2.2,3.4,3,1.3.8,2.6,1.4,3.9,1.8,1.3.4,2.6.6,3.9.6h6v5.3h-6c-2.9,0-5.6-.5-8.1-1.6-2.5-1.1-4.7-2.5-6.5-4.4s-3.2-4.1-4.2-6.7c-1-2.6-1.6-5.4-1.6-8.3s.5-5.1,1.5-7.6c1-2.5,2.5-4.7,4.3-6.7,1.8-2,4.2-3.6,7-4.8,2.8-1.2,5.8-1.8,9.1-1.8h4.4Z"/>
              <path class="cls-4" d="M142.5,99.8v5.3h-20.2c.2,2.6,1,4.9,2.4,7,1.4,2.1,3.3,3.8,5.5,5s4.5,1.8,6.9,1.8h5.4v5.3h-4.4c-4.1,0-7.8-.9-11.1-2.7s-5.9-4.3-7.8-7.5c-1.9-3.2-2.8-6.8-2.8-10.7s.9-7.5,2.8-10.7c1.9-3.2,4.4-5.7,7.8-7.5s7-2.7,11.1-2.7h4.4v5.3h-3.8c-2.1,0-4,.3-5.9.9-1.8.6-3.4,1.3-4.6,2.3-1.2.9-2.3,1.9-3.2,3.1-.9,1.1-1.6,2.2-2,3.3-.4,1.1-.7,2-.7,2.9h20.2Z"/>
              <path class="cls-4" d="M153.6,124.1h-5.6v-37.1c0-1.8.4-3.1,1.3-3.9.9-.8,2.1-1.3,3.6-1.3s1.2,0,1.7.3,1,.4,1.3.7c.4.3.8.7,1.2,1.3.4.6.7,1.1,1,1.7s.7,1.3,1.2,2.3l13.5,27.8h.1v-33.7h5.6v38.3c0,1.2-.4,2.2-1.1,2.9-.7.7-1.8,1.1-3.2,1.1s-2.4-.3-3.2-.8c-.8-.6-1.6-1.6-2.3-3.2l-14.9-30.7h-.1v34.4Z"/>
              <path class="cls-4" d="M181.7,87.5v-5.3h26.4v5.3h-10.4v36.6h-5.6v-36.6h-10.4Z"/>
              <path class="cls-4" d="M216.8,124.1h-5.6v-27.7c0-4.6,1.3-8.3,3.8-11,2.5-2.7,5.9-4,10.1-4s6.9,1.2,9.3,3.5c2.4,2.3,3.6,5.1,3.6,8.4s-1.6,7.4-4.9,9.4c1.9.8,3.3,1.8,4.2,3.2s1.3,3.6,1.3,6.5v11.7h-5.6v-11.5c0-2.1-.6-3.8-1.9-5-1.3-1.2-3.2-1.8-5.7-1.8h-6.2v-5.3h4.4c2.6,0,4.7-.6,6.3-1.8,1.6-1.2,2.4-2.9,2.4-5.2s-.7-3.7-2.1-4.9c-1.4-1.3-3.1-1.9-5.1-1.9s-4.4.7-6,2.2c-1.5,1.5-2.3,3.4-2.3,5.9v29.3Z"/>
              <path class="cls-4" d="M249.4,124.1h-5.6v-26.6c0-4.9,1.3-8.8,4-11.7,2.7-2.9,6.1-4.4,10.3-4.4s7.6,1.5,10.3,4.4c2.7,2.9,4,6.8,4,11.7v26.6h-5.6v-19h-15.1v-5.3h15.1v-2.7c0-3.2-.8-5.8-2.4-7.6-1.6-1.9-3.7-2.8-6.3-2.8s-4.7.9-6.3,2.8-2.4,4.4-2.4,7.6v27Z"/>
              <path class="cls-4" d="M278.6,82.2h5.6v27c0,3.3.7,5.7,2.1,7.3,1.4,1.6,3.5,2.4,6.4,2.4h5.5v5.3h-6.3c-4,0-7.2-1.3-9.7-3.8-2.4-2.5-3.7-5.8-3.7-9.8v-28.4Z"/>
            </g>
          </g>
        </g>
      </g>
    </g>
  </g>
</svg>